<?xml version="1.0" encoding="UTF-8"?>
<svg width="467px" height="231px" viewBox="0 0 467 231" version="1.1" xmlns="http://www.w3.org/2000/svg" xmlns:xlink="http://www.w3.org/1999/xlink">
    <!-- Generator: Sketch 50 (54983) - http://www.bohemiancoding.com/sketch -->
    <title>Group</title>
    <desc>Created with Sketch.</desc>
    <defs></defs>
    <g id="Welcome" stroke="none" stroke-width="1" fill="none" fill-rule="evenodd">
        <g id="Desktop-HD" transform="translate(-468.000000, -296.000000)">
            <g id="Group" transform="translate(471.000000, 254.000000)">
                <g id="black-mountain" transform="translate(237.439933, 107.661846) rotate(1.500000) translate(-237.439933, -107.661846) translate(2.939933, 6.161846)" fill="#000000" stroke="#000000" stroke-width="2">
                    <path d="M303.145024,30.5823732 L311.663939,25.9048782 L323.726129,34.449047 C327.306671,35.3567527 327.666234,41.5452685 335.573749,44.4621831 C343.481288,47.3791113 349.151177,49.9075262 352.582604,52.0465356 C356.014031,54.1864655 358.848975,56.0009711 361.087436,57.4918787 C363.325088,58.9837069 365.861777,60.5395153 368.696722,62.1602382 C371.530857,63.7800405 379.898179,65.0415006 385.568067,66.9858078 C397.567279,73.6478371 379.582531,70.1184582 393.529433,73.6167464 C376.002798,62.6236947 399.21674,74.8041829 404.744138,79.630673 C408.65939,82.9159722 413.637507,87.3631138 416.562759,91.4683708 C435.496095,104.967004 457.584954,109.039358 461.126586,112.934374 C454.706929,113.080635 409.519289,104.187273 414.277905,106.103238 L404.034971,103.749412 L398.238343,103.953264 C374.735274,104.030049 381.309001,104.944158 374.045196,102.988873 L388.784923,101.99798 C392.32653,100.297738 408.134986,102.235657 411.057709,96.5270416 C408.202085,92.8075356 400.34837,82.1773738 396.235967,80.7696536 C391.461626,79.7330522 398.317021,80.8729396 389.066592,79.3171312 C379.816137,77.7613228 381.304045,77.8152469 378.319962,77.0373427 C375.335903,76.2594385 371.680805,75.1899338 367.353806,73.8288277 C363.026832,72.4677225 358.848974,71.0407951 354.820229,69.5498875 C350.792319,68.0589799 348.702972,67.2810619 348.553858,67.2161612 L348.330187,67.1192767 L348.106515,67.2161612 C347.957376,67.2810619 345.346128,67.1512604 340.273532,66.8276762 L332.664246,66.3413588 L330.425785,64.6877463 C328.933756,63.5862441 327.367144,62.4189207 325.726001,61.187617 C324.084857,59.9554066 322.145459,58.7890037 319.907807,57.6865947 C317.669346,56.5850926 315.655391,55.8711686 313.865133,55.5475707 L311.179304,55.061267 L312.074016,60.7013124 L315.249461,64.2114987 L316.433301,65.6987517 C319.511813,67.3203814 321.974806,71.8744636 326.450893,72.5874661 L332.309664,73.3288124 L336.449423,75.4979919 C338.280283,78.6105293 336.161964,79.0931784 338.419463,76.807908 L337.926536,76.1725964 L344.389273,78.5501899 C343.823432,81.3683926 330.304002,78.6178385 334.688972,78.3436033 C339.359758,80.7943272 348.069224,78.6525691 354.547687,83.7587763 L368.603126,89.0277029 L338.930617,82.9689887 C325.204075,83.6819921 316.699243,83.7798108 313.41693,83.2605892 C310.134617,82.7422889 308.418916,82.4506875 308.269777,82.3857868 L303.931198,82.810858 L314.421846,80.62522 C317.880604,79.9231803 317.671848,80.0027123 313.416929,77.232045 C315.16661,77.0409964 316.916289,76.8499487 318.666804,76.6598207 L313.850216,74.0728928 C311.313501,73.4896918 306.438916,72.1422964 302.898143,73.2456258 L297.303621,72.1752006 L295.512529,69.841488 C294.319564,68.2856796 292.902091,66.3084554 291.260947,63.9098421 L288.79879,60.3119078 L286.784834,60.7982115 C285.44192,61.1227163 284.024447,62.3220362 282.532418,64.3961458 C281.040389,66.4711749 277.90719,70.9438969 273.132849,77.8152469 C268.358508,84.6875166 263.807863,89.5816552 259.480864,92.4985697 C255.15389,95.4164039 250.826917,98.0737144 246.499944,100.472341 C242.172946,102.870955 238.145035,105.269582 234.414545,107.668195 C230.684889,110.066809 228.148174,111.817333 226.805259,112.918835 C225.462344,114.021244 224.194821,115.480168 223.001021,117.294674 C221.807246,119.110085 220.688003,121.022396 219.644151,123.032524 C218.59949,125.041732 217.629387,126.079254 216.73465,126.144141 L206.076685,135.250492 L211.713428,128.526323 C214.742236,122.878955 216.964972,122.750981 215.391735,119.82309 C217.109105,116.47745 217.853059,113.438043 220.09152,110.391328 C223.151804,107.239485 224.269378,105.204668 225.910547,103.973365 C227.551691,102.741154 230.237521,100.926649 233.967177,98.5280362 C237.697692,96.1294091 240.979979,94.05438 243.814949,92.3038684 C246.649059,90.5542645 248.663848,88.9655381 249.856814,87.5395312 C251.050589,86.1135243 252.468061,83.2935089 254.10923,79.0794695 L256.571363,72.7593249 L252.990821,72.7593249 C250.603246,72.7593249 248.290203,73.1807278 246.052576,74.0235328 C243.814949,74.8654309 241.501906,76.3243411 239.11433,78.3993712 C236.726754,80.4744003 232.251476,85.659219 225.686851,93.9574955 C219.121416,102.254851 212.780463,109.029302 206.663232,114.280849 C200.545975,119.531489 196.517231,122.837823 194.577833,124.198928 C192.638435,125.560048 189.505262,127.829779 185.178276,131.006283 C180.851291,134.182814 175.927834,137.229544 170.40706,140.146471 C164.887108,143.063371 161.45486,144.878783 160.112767,145.591815 C158.769852,146.304818 157.501507,146.920909 156.307707,147.439223 C155.11392,147.958431 151.086009,149.449324 144.222321,151.912852 C137.359467,154.37638 128.556394,156.710106 117.81391,158.914004 C107.071438,161.117929 98.1192376,162.93334 90.957308,164.359347 C83.7953783,165.785354 78.9464858,166.789958 76.4106047,167.374079 L72.6055449,168.248882 L73.9484595,166.88779 C74.8440118,165.980071 76.1115352,165.07235 77.7526917,164.164658 C79.3946699,163.256939 81.1849527,162.60885 83.1243386,162.220338 C85.063736,161.830932 87.89868,161.021045 91.6291828,159.788806 C95.3588515,158.557516 99.0139623,157.487998 102.595339,156.580306 C106.175893,155.672586 109.458193,154.829781 112.442264,154.051863 C115.426323,153.273972 119.678752,152.074652 125.199525,150.453957 C130.719464,148.833234 136.240238,147.082709 141.760177,145.203302 C147.28095,143.322975 151.757051,141.507564 155.188478,139.757959 C158.620739,138.007434 161.380292,136.483623 163.469638,135.187418 C165.558151,133.890293 167.945739,132.075801 170.630734,129.742075 C173.316563,127.408349 177.792663,123.712611 184.059035,118.656687 C190.325419,113.599842 193.981352,110.098806 195.025203,108.1545 L196.592624,105.237586 L195.025203,104.848167 C193.981352,104.588563 192.862109,104.200064 191.668334,103.681778 C190.475368,103.162557 187.565866,101.898349 182.940639,99.8891414 C178.315411,97.879013 174.659478,96.6157119 171.973648,96.0965049 L167.945738,95.3186007 L164.812552,95.3186007 L161.679366,95.3186007 L153.845562,97.1660096 C148.623864,98.3982201 144.073207,100.570147 140.193589,103.681778 C136.314793,106.793395 133.330735,110.098807 131.24221,113.599843 C129.152864,117.100879 127.959076,119.304789 127.660834,120.21251 C127.362592,121.120215 126.76611,122.156817 125.870564,123.324126 C124.975005,124.490529 124.154851,125.68985 123.408419,126.922061 C122.662809,128.153351 121.991768,128.801467 121.394464,128.866354 C120.797981,128.931269 119.753307,130.649796 118.261278,134.020096 C116.769236,137.391344 115.500891,139.271671 114.45704,139.660155 C113.412366,140.04956 111.994895,140.95728 110.204623,142.383287 L107.518794,144.522296 L109.517846,138.932534 L108.414353,135.575932 L106.983621,136.396782 C104.446918,137.758823 98.8648352,140.697677 94.9860519,142.771772 C91.1064343,144.846816 88.570554,146.207907 87.3767657,146.856023 C86.1829649,147.504111 83.4971481,148.185117 79.3192829,148.898121 L69.9503748,152.201721 L70.4698104,150.555416 C71.3653627,149.389013 76.2606549,146.272821 77.3053277,145.883417 C78.3500013,145.494904 79.9165934,144.587184 82.0051064,143.161178 C84.0944528,141.735171 89.4652778,137.521146 98.1192368,130.519996 C106.773196,123.518844 111.398411,119.110089 111.994894,117.294677 C112.591377,115.480172 112.51682,114.215951 111.771222,113.502948 L110.651992,112.433443 L106.847754,114.669351 C104.311051,116.160258 100.655118,118.786492 95.8807765,122.546224 C91.1064351,126.305943 82.6769812,133.015494 70.5915888,142.674889 C58.506203,152.334257 51.1954867,157.974317 48.6587026,159.59504 C46.1229043,161.214815 43.5861194,162.868456 41.0494106,164.554066 C38.5135361,166.239676 36.349632,167.374081 34.559355,167.957283 C32.7690847,168.540484 28.4421048,170.064296 21.5792446,172.527824 C14.7155592,174.991352 10.6122609,176.384441 9.26934627,176.708959 L7.25539105,177.195276 L8.59830567,176.027953 C9.49385465,175.250035 12.1788538,173.62934 16.6549534,171.165812 C21.1310538,168.703204 26.7263872,164.975469 33.4401244,159.983525 C40.154686,154.991581 44.1826022,151.944852 45.5255102,150.843364 C46.8684248,149.740928 50.822606,146.33771 57.3869717,140.632764 C63.9515842,134.927818 67.8312076,131.556597 69.0249959,130.519997 C70.21879,129.482475 76.9325231,123.453931 89.1670368,112.433443 C101.40155,101.412048 108.787152,95.2217052 111.323032,93.8596795 L115.128092,91.8184742 L121.841819,91.4290687 L128.556393,91.04057 L131.913251,88.8037556 C134.151724,87.3128342 137.28491,85.0440224 141.31282,81.9963867 C145.341551,78.949657 149.294905,76.5839478 153.174521,74.8983379 C155.047642,71.7830528 160.727478,71.6084636 159.145976,72.5929544 L163.899598,72.1532657 L169.96964,74.1761989 C178.700647,76.5592742 172.7847,76.2228852 173.528641,77.6479716 C175.539284,75.2328997 171.821221,76.3161151 182.940637,80.0520805 C187.864093,83.4882158 192.712992,86.3082312 197.487334,88.512156 C202.261675,90.7160662 205.543988,92.1100756 207.33508,92.6932775 L210.020101,93.5680799 L212.482234,90.0679644 C214.123378,87.7342381 217.055253,86.0742232 219.442854,83.4808929 C221.83043,80.8875772 222.948838,79.3646721 222.799724,78.9103522 L222.76491,80.0465986 L223.695269,77.743963 C224.440867,77.4194445 224.940418,75.6762421 227.029765,74.1204337 C229.118277,72.5646253 231.430486,71.1057014 233.967176,69.7445953 C236.503891,68.3834901 240.15899,66.9245652 244.933332,65.3687568 C249.707673,63.8129484 253.661861,62.4838398 256.795059,61.3823385 C259.928232,60.2799159 262.837734,58.8859064 265.523563,57.2002828 C268.209392,55.5146729 270.372462,53.7001673 272.013631,51.7549397 C273.654775,49.8106326 274.848575,48.6433229 275.594172,48.2548241 C276.340604,47.8654186 278.578231,46.7310132 282.308746,44.8506863 C286.038402,42.97128 288.649675,41.707073 290.141704,41.0589703 C291.633733,40.4099471 293.573131,39.7618454 295.960732,39.1137427 C298.347472,38.46564 298.668911,30.8419817 303.145024,30.5823778" id="path2" transform="translate(234.190988, 101.550077) rotate(6.562500) translate(-234.190988, -101.550077) "></path>
                </g>
                <text id="TrailBlazer" font-family="AmaticSC-Bold, Amatic SC" font-size="151" font-weight="bold" fill="#1B1C1C">
                    <tspan x="1.71718523" y="278">TrailBlazer</tspan>
                </text>
            </g>
        </g>
    </g>
</svg>